<?xml version="1.0" encoding="UTF-8"?>
<svg id="Layer_1" data-name="Layer 1" xmlns="http://www.w3.org/2000/svg" viewBox="0 0 652.72 261.51">
  <defs>
    <style>
      .cls-1 {
        font-family: GuardianSans-Regular, 'Guardian Sans';
        font-size: 64.2px;
      }

      .cls-1, .cls-2 {
        fill: #3273f6;
      }

      .cls-3 {
        fill: #64d95f;
      }

      .cls-4 {
        fill: #1ed561;
      }
    </style>
  </defs>
  <g>
    <path class="cls-3" d="M326.71,101.07h-21.19l-21.72,24.93v-38.81c0-4.63-3.83-8.64-8.46-8.64h-9.26v90.18h17.63v-25.64c0-1.87.89-3.03,2.76-3.47,2.23,0,4.54,1.96,6.77,5.96l12.46,23.06h21.19l-24.39-41.57,24.21-25.99Z"/>
    <path class="cls-3" d="M353.24,97.51c-21.36.18-32.05,12.11-32.05,35.96s10.59,36.23,31.87,36.85c17.27,0,26.8-8.19,30.62-23.06h-13c-2.4,0-4.36.8-5.96,2.49-3.47,3.29-7.3,5.07-11.39,5.07-8.64,0-13.26-5.43-13.89-16.2h45.31c1.25-27.51-9.26-41.13-31.51-41.13ZM339.53,126c1.34-9.26,5.88-14.07,13.35-14.07s11.93,4.81,13,14.07h-26.35Z"/>
    <path class="cls-3" d="M420.45,97.51c-21.36.18-32.05,12.11-32.05,35.96s10.59,36.23,31.87,36.85c17.27,0,26.8-8.19,30.62-23.06h-13c-2.4,0-4.36.8-5.96,2.49-3.47,3.29-7.3,5.07-11.39,5.07-8.63,0-13.26-5.43-13.89-16.2h45.31c1.25-27.51-9.26-41.13-31.51-41.13ZM406.74,126c1.34-9.26,5.88-14.07,13.35-14.07s11.93,4.81,13,14.07h-26.35Z"/>
    <path class="cls-3" d="M456.06,132.5v36.23h17.89v-36.5c0-10.24,4.9-15.4,14.69-15.4h5.97v-18.25h-2.49c-23.41,0-35.52,11.31-36.05,33.92Z"/>
    <path class="cls-3" d="M530.12,97.51c-21.19,0-31.78,12.11-31.78,36.5s10.59,36.32,31.78,36.32,31.96-12.2,31.96-36.32-10.68-36.5-31.96-36.5ZM530.03,154.57c-8.99,0-13.62-6.85-13.8-20.56,0-13.89,4.63-20.92,13.89-20.92s13.53,6.77,13.53,20.39c-.09,13.89-4.63,21.1-13.62,21.1Z"/>
    <path class="cls-3" d="M596.71,97.51c-20.03,0-30.09,9.97-30.09,30v41.22h17.89v-44.78c.09-7.3,4.09-10.86,11.93-10.86s11.84,3.56,12.2,10.86v36.05c0,5.61,2.94,8.37,8.72,8.72h8.99v-41.22c.18-20.03-9.62-30-29.64-30Z"/>
    <path class="cls-3" d="M511.7,11.07s-35.25,3.29-56.71,14.15c0,0,20.39,1.87,32.14,1.69-22.7,29.29-57.77,50.12-95.79,55.37-41.31,5.79-85.73-6.85-118.58-34.81,30.62,30.45,75.04,47.45,119.55,44.78,41.39-2.58,80.3-23.15,108.51-55.1,2.76,12.2,8.99,32.31,8.99,32.31,6.5-23.77,1.87-58.4,1.87-58.4Z"/>
  </g>
  <text class="cls-1" transform="translate(266.08 236.51)"><tspan x="0" y="0">Study Abroad</tspan></text>
  <path class="cls-2" d="M167.97,154.83c-.63-11.86-2.61-23.8-6.86-34.87-5.18.88-11.63,3.61-16.92,2.96-2-.25-4.56-6.19-12.58-5.98-6.67.17-10.73,5.49-14.62,5.89-3.85.4-10-3.06-13.55-2.8-1.58.11-2.52,1.92-4.7,1.86-4.4-.12-3.66-3.51-4.71-4.6-1.32-1.37-11.82-3.85-13.81-6.88-11.98,11.25-18.59,28.2-19.87,44.42,17.73-.66-5.84,10.38-6.77,9.7-5.18-59.01,58.17-102.22,111.38-76.12-1.29.9-2.56,6.11-2.83,6.32-.54.42-7.06-4.1-8.7-2.43,3.89,1.69,10.73,18.28,11.66,18.89.14.1,1.92-1.1,3.15-.82,3.65.84,7.36,7.09-.3,7.15,3.9,12.03,7.46,24.52,6.8,37.3h27.14c.82-9.92-3.07-18.91-5.81-28.11,6.79.41,7.54.15,9.73,6.26,12.04,33.7-2.46,73.13-32.7,91.45-44.07,26.69-103.97,5.04-116.63-45.36,1.68.21,5.55-1.73,6.7-.9.56.4,3.95,10.67,5.11,12.84,1.32,2.48,10.06,15.98,11.93,16l14.94-8.22c-2.08-9.33-6.53-19.24-5.77-28.98.29-3.64,1.39-8.27,5.86-8.19,1.33,11.74,2.93,23.59,6.92,34.77,3.54-.83,23.94-2.37,25.14-3.19.99-.68.83-1.89.95-2.92.35-2.87.94-26.7-.04-27.68-.72-.72-8.7,1.71-8.55-2.19.34-8.76,7.48-4.5,8.55-5.55.53-.53-.52-9.85-.02-11.92.19-.8,5.68-3.47,6.8-4.56v16.48h32.96ZM128.22,88.91c-11.61,2.18-19.13,14.12-23.27,24.23,7.82.99,15.22,3.89,23.27,2.92v-27.14ZM135.01,88.91v27.14c7.89.52,15.64-1.15,23.26-2.92-4.79-10.05-11.22-22.06-23.26-24.22ZM109.8,91.83c-2.43-1.86-21.69,10.04-24.22,13.08.01.93,10.39,6.29,12.59,4.91,1.53-.97,8.02-15.88,11.63-17.98ZM167.97,162.58h-32.96v31.02c8.89-.32,17.71,1.44,26.16,3.89,3.55-11.37,5.91-23,6.8-34.91ZM201.9,162.58h-27.14c.27,12.42-2.85,24.58-6.66,36.25.36,1.57,12.58,5.98,14.95,7.38,11.64-10.45,18.81-27.66,18.86-43.63ZM128.22,200.39c-2.75.79-23.28,1.77-23.25,4.36,5.91,9.02,11.47,20.72,23.25,22.78v-27.14ZM135.01,227.54c10.62-2,18.01-13.57,22.29-22.75-.48-2.32-19.39-4.11-22.29-3.42v26.17ZM110.77,225.59l-12.58-18.97-11.66,4.45c-.32,1.36.21,1.59.94,2.43,2.09,2.41,21.85,13.27,23.29,12.08ZM177.66,211.07l-13.56-4.86c-1.66,7.03-6.86,12.56-10.67,18.41,3.54,1.27,25.59-11.77,24.23-13.55Z"/>
  <path class="cls-4" d="M241.63,109.26c-.17.26-1.36-.69-1.94-.41-1.31.63-6.32,10.38-7.01,12.32-1.29,3.66-1.38,3.44-2.65,6.29-2.59,5.8.23,15.03-10.62,6.42.24-3.53,4.08-5.23,5.79-7.62,1.05-1.47,3.79-5.52,4.68-6.95.72-1.18,5.47-10.59,4.97-11.01-9.56-.59-19.08-1.98-28.6-2.9-4.45-.43-9.38,1.03-13.44-1.1l-31.63-39.61,48.44,5.35c9.24,10.44,18.49,21.07,27.15,31.99.92,1.16,5.45,6.36,4.86,7.25Z"/>
  <path class="cls-4" d="M105.93,177.12c.03-8.43-1.41-16.91-2.92-25.2-.7-.5-14.72,7.32-15.26,7.99-1.59,1.97-1.99,14.56-6.55,14.27-2.57-.16-1.89-12.58-3.94-15.41-1.47-2.03-8.62-7.51-11.07-8.81,1.9-8.21,12.36-.22,16.74-1.14.79-.17,12.99-8.29,13.31-9.02-4.82-3.59-11.58-7.26-15.97-11.17-5.61-4.99,1.79-5.5,6.67-6.76,5.73.77,20.88,8.71,25.33,8.63,5.61-.1,15.13-12.83,24.44-8.86,13.6,5.8-14.87,17.87-16.66,20.65-3.27,5.07-3.61,23.41-5.88,29.99-.95,1.21-7.43,5.71-8.23,4.84Z"/>
  <path class="cls-4" d="M212.36,123.6c-13.7,2.19-35.87-7.09-43.85-18.28-6.66-9.32.48-11.38,3.34-20.29l19.4,22.76c5.08,1.84,23.78.08,27.15,1.93,1.54.85.47,1.23.15,2.12-1.41,3.93-4.36,7.97-6.19,11.76Z"/>
  <path class="cls-4" d="M48.73,141.27c-17.38,15.68-30.59,41.77,7.45,26.34,2.7-1.09,13.56-7.76,14.37-7.76,1.01,0,4.66,5.23,4.36,5.63-11.28,4.63-33.12,17.28-44.9,10.5-12.12-6.97,9.41-27.79,15.33-32.79,1.09-.92,1.58-2.35,3.4-1.93Z"/>
</svg>