<?xml version="1.0" encoding="UTF-8"?>
<svg id="Layer_1" data-name="Layer 1" xmlns="http://www.w3.org/2000/svg" viewBox="0 0 5 5">
  <defs>
    <style>
      .cls-1 {
        fill: #8d9998;
      }

      .cls-2 {
        fill: #83bf4f;
      }

      .cls-3 {
        fill: #dbb471;
      }

      .cls-4 {
        fill: #002274;
      }

      .cls-5 {
        fill: #699635;
      }

      .cls-6 {
        fill: #d1d1d1;
      }

      .cls-7 {
        fill: #e8e8e8;
      }
    </style>
  </defs>
  <path class="cls-5" d="M4.72,1.66c-.47-.43-.95-.86-1.42-1.3-.69,1.06-1.87,2-2.99,2.67-.03.14-.06.28-.1.42.49.45.98.89,1.47,1.34,1.16-.63,2.38-1.53,3.12-2.56-.02-.19-.05-.39-.08-.58Z"/>
  <path class="cls-2" d="M1.77,4.22c-.48-.44-.97-.88-1.45-1.32C1.52,2.23,2.53,1.3,3.27.21c.48.44.97.88,1.45,1.32-.74,1.09-1.75,2.02-2.95,2.7Z"/>
  <path class="cls-5" d="M.89,3.07c.26.24.52.48.78.72.1-.03.22-.03.31.02.89-.56,1.66-1.27,2.28-2.08-.05-.08-.06-.19-.03-.28-.26-.24-.52-.48-.78-.72-.07.06-.17.07-.25.03-.62.81-1.39,1.52-2.28,2.08.05.08.04.16-.03.23ZM1.64,3.94c-.32-.29-.64-.59-.97-.88.02-.01.04-.02.06-.03.06-.04.07-.11.02-.16-.02-.01-.03-.03-.05-.04.97-.6,1.81-1.36,2.47-2.25.02.01.03.03.05.04.05.05.13.04.17-.02.01-.02.03-.04.04-.05.32.29.64.59.97.88-.01.02-.03.04-.04.05-.04.06-.03.15.02.2.02.01.03.03.05.04-.66.89-1.49,1.65-2.47,2.25-.02-.01-.03-.03-.05-.04-.05-.05-.15-.06-.21-.02-.02.01-.04.02-.06.04Z"/>
  <path class="cls-5" d="M1.59,2.9c.08-.03.18-.02.24.03-.04.03-.08.06-.13.09-.02-.02-.05-.02-.07,0-.02.02-.03.04-.01.06.02.02.05.02.07,0,.09-.06.22-.07.29,0,.06.05.06.13,0,.19.01.01.03.03.04.04-.04.03-.08.05-.11.08-.01-.01-.03-.03-.04-.04-.08.03-.17.01-.23-.04.04-.03.09-.06.13-.09.02.02.05.02.07,0,.02-.02.03-.04,0-.06-.02-.02-.05-.02-.07,0-.05.04-.12.05-.18.04-.05,0-.09-.02-.12-.05-.06-.05-.06-.12-.01-.18-.01-.01-.03-.02-.04-.03.04-.03.08-.05.11-.08.01.01.02.02.04.03Z"/>
  <path class="cls-5" d="M3.35,1.27c.07-.05.15-.05.21,0-.03.04-.06.08-.09.12-.02-.02-.05-.01-.06,0-.02.02-.02.05,0,.07.02.02.05.01.06,0,.07-.08.18-.1.25-.04.06.05.07.14.04.22.01.01.03.03.04.04-.03.03-.06.07-.09.1-.01-.01-.03-.03-.04-.04-.07.04-.15.04-.2-.01.03-.04.07-.08.1-.11.02.02.05.01.06,0,.02-.02.02-.05,0-.07-.02-.02-.04-.01-.06,0-.04.05-.1.07-.15.07-.04,0-.08-.01-.11-.04-.06-.05-.07-.13-.04-.21-.01-.01-.03-.02-.04-.03.03-.03.06-.07.09-.1.01.01.02.02.04.03Z"/>
  <path class="cls-5" d="M3.12,2.77c-.25.23-.66.22-.9,0-.24-.22-.22-.56.03-.79.25-.22.62-.24.86-.02.24.22.25.59,0,.82Z"/>
  <path class="cls-4" d="M1.72,1.92l1.45,1.32c.16-.14.32-.28.48-.43l-1.45-1.32c-.15.15-.31.3-.48.43Z"/>
  <path class="cls-3" d="M3.18,3.83c.16-.12.32-.25.48-.38v-.64c-.15.15-.31.3-.48.44v.59Z"/>
  <path class="cls-1" d="M.98,1.95c.08-.03.15-.08.22-.13.07-.05.13-.11.2-.17.07-.06.14-.11.22-.15.08-.04.17-.07.26-.05-.09.02-.16.06-.23.11-.07.05-.13.11-.2.16-.07.06-.14.11-.21.16-.08.05-.17.08-.25.08Z"/>
  <path class="cls-7" d="M3.1,2.58s.38.1,1.25-.12c.87-.23.46,2.28-1.13,2.28-.17,0-.18-.22.3-.62,0,0-.69.16-.39-.35,0,0-.49.09-.26-.31,0,0,.1-.29.01-.62,0,0,.05-.17.22-.26Z"/>
  <path class="cls-6" d="M4.76,2.7c.02.68-.52,1.79-1.58,1.79,0,0,0,0-.01,0-.1.16-.06.25.05.25,1.21,0,1.73-1.44,1.54-2.04Z"/>
  <path class="cls-6" d="M4.21,3.07c-.23.82-1.15.9-1.15.9-.04.17.04.26.13.26.34,0,.97-.56,1.02-1.15Z"/>
  <path class="cls-6" d="M3.56,3.07c-.54.77-.73.48-.74.48-.14.3.22.31.28.24.18-.2.47-.59.45-.72Z"/>
  <path class="cls-1" d="M3.15,4.52c.09-.12.21-.22.32-.32.12-.1.23-.2.34-.31.11-.11.21-.23.29-.37.08-.14.12-.3.1-.45-.01.15-.07.3-.15.42-.08.13-.18.24-.29.34-.11.11-.22.21-.33.32-.11.11-.21.23-.28.37Z"/>
  <path class="cls-1" d="M3.05,3.97c.03-.08.08-.15.13-.22.05-.07.11-.13.17-.2.06-.07.11-.14.15-.22.04-.08.07-.17.05-.26-.02.09-.06.16-.11.23-.05.07-.11.13-.16.2-.06.07-.11.14-.16.21-.05.08-.08.17-.08.25Z"/>
  <path class="cls-7" d="M2.36,1.9s-.1-.38.12-1.25C2.71-.22.21.19.21,1.79c0,.17.22.18.62-.3,0,0-.16.69.35.39,0,0-.09.49.31.26,0,0,.29-.1.62-.01,0,0,.17-.05.26-.22Z"/>
  <path class="cls-6" d="M2.24.24c-.68-.02-1.79.52-1.79,1.58,0,0,0,0,0,.01-.16.1-.25.06-.25-.05C.21.58,1.64.05,2.24.24Z"/>
  <path class="cls-6" d="M1.87.8c-.82.23-.9,1.15-.9,1.15-.17.04-.26-.04-.26-.13,0-.34.56-.97,1.15-1.02Z"/>
  <path class="cls-6" d="M1.87,1.44c-.77.54-.48.73-.48.74-.3.14-.31-.22-.24-.28.2-.18.59-.47.72-.45Z"/>
  <path class="cls-1" d="M.43,1.85c.12-.09.22-.21.32-.32.1-.12.2-.23.31-.34.11-.11.23-.21.37-.29.14-.08.3-.12.45-.1-.15.01-.3.07-.42.15-.13.08-.24.18-.34.29-.11.11-.21.22-.32.33-.11.11-.23.21-.37.28Z"/>
  <path class="cls-1" d="M.98,1.95c.08-.03.15-.08.22-.13.07-.05.13-.11.2-.17.07-.06.14-.11.22-.15.08-.04.17-.07.26-.05-.09.02-.16.06-.23.11-.07.05-.13.11-.2.16-.07.06-.14.11-.21.16-.08.05-.17.08-.25.08Z"/>
</svg>