<?xml version="1.0" encoding="UTF-8"?>
<svg id="Layer_1" data-name="Layer 1" xmlns="http://www.w3.org/2000/svg" viewBox="0 0 5 5">
  <defs>
    <style>
      .cls-1 {
        isolation: isolate;
        opacity: .5;
      }

      .cls-2 {
        fill: #89664c;
      }

      .cls-3 {
        fill: #83bf4f;
      }

      .cls-4 {
        fill: #f9f3d9;
      }

      .cls-5 {
        fill: none;
        stroke: #699635;
        stroke-miterlimit: 10;
        stroke-width: .07px;
      }

      .cls-6 {
        fill: #dbb471;
      }

      .cls-7 {
        fill: #699635;
      }

      .cls-8 {
        fill: #e8e8e8;
      }
    </style>
  </defs>
  <path class="cls-6" d="M4.11,3.59c0,.89-.72.88-1.61.88s-1.61,0-1.61-.88.72-2.33,1.61-2.33,1.61,1.44,1.61,2.33Z"/>
  <g class="cls-1">
    <path class="cls-2" d="M4.11,3.59c0-.3-.08-.67-.23-1.02.03.23-.03.63-.72.78-.99.21-.48.49-.86.52-.33.03-1.2-.11-1.38-.6-.02.11-.03.21-.03.31,0,.89.72.88,1.61.88s1.61,0,1.61-.88Z"/>
  </g>
  <path class="cls-2" d="M2.75,3.35s-.06.04-.1.05c0-.11,0-.21,0-.32.01,0,.03,0,.04,0,.14.02.18.18.07.26ZM2.52,3.43s-.07,0-.1,0c0-.11,0-.22-.01-.33.04,0,.09,0,.13,0,0,.11,0,.23.01.34-.01,0-.02,0-.03,0ZM2.27,2.96s-.06-.03-.08-.05c-.07-.06.03-.13.08-.15,0,.07.02.14.02.21,0,0-.01,0-.02,0ZM2.54,2.73c0,.08,0,.16,0,.24-.04,0-.07,0-.1,0-.01,0-.02,0-.04,0,0-.09-.01-.17-.02-.26.05,0,.11,0,.16,0ZM2.93,3.17c-.03-.15-.16-.19-.28-.19,0-.07,0-.14,0-.21.04.02.08.04.11.06.06.04.12-.06.06-.1-.05-.03-.11-.06-.17-.08,0-.08,0-.16,0-.24,0-.07-.11-.07-.11,0s0,.14,0,.21c-.06-.01-.12-.01-.18,0,0-.05-.02-.1-.03-.16-.02-.07-.12-.04-.11.03.01.05.02.1.03.15,0,0,0,0-.01,0-.15.06-.24.21-.13.34.05.06.12.09.19.1,0,.1,0,.19,0,.29-.05-.03-.09-.07-.13-.11-.05-.05-.13.03-.08.08.07.07.14.12.21.16,0,.08,0,.16.02.24,0,.07.12.07.11,0,0-.07-.01-.14-.01-.21.04,0,.09,0,.13,0,0,.07.01.15.02.22,0,.07.12.07.11,0,0-.08-.02-.16-.02-.24.16-.05.31-.17.27-.35Z"/>
  <polygon class="cls-7" points="2.64 4.18 2.48 4.18 2.48 4.47 3.16 4.84 4.69 4.36 4.69 4.11 4.13 3.78 2.64 4.18"/>
  <path class="cls-3" d="M2.5,4.02s.18.28.67.53c0,0,.77-.04,1.52-.53,0,0-.43-.21-.55-.49,0,0-.3.41-1.64.49Z"/>
  <polygon class="cls-7" points="2.17 4.18 2.33 4.16 2.35 4.44 1.72 4.84 .19 4.51 .17 4.27 .69 3.91 2.17 4.18"/>
  <path class="cls-3" d="M2.3,4.01s-.15.28-.61.55c0,0-.75.03-1.52-.38,0,0,.41-.23.5-.51,0,0,.32.36,1.63.34Z"/>
  <path class="cls-5" d="M1.93,4.08s-.02.06.08.06l-.27.23s-.16-.02-.19.09c0,0-.66-.07-1.08-.26,0,0,.09-.07-.02-.11,0,0,.12-.09.15-.17,0,0,.11.02.16-.08,0,0,.44.26,1.17.23Z"/>
  <ellipse class="cls-7" cx=".81" cy="4.09" rx=".14" ry=".09"/>
  <path class="cls-4" d="M1.55,3.97s-.17.22-.53.52l.02.2-.26-.06-.02-.21s.37-.34.45-.51c0,0,.13.04.33.06Z"/>
  <path class="cls-4" d="M3.24,3.93s.07.17.56.5v.21l.28-.09v-.22s-.34-.24-.55-.48l-.3.08Z"/>
  <polygon class="cls-7" points="2.82 3.69 2.66 3.68 2.65 3.98 3.3 4.4 4.82 3.99 4.83 3.72 4.3 3.35 2.82 3.69"/>
  <path class="cls-3" d="M2.69,3.51s.16.3.64.59c0,0,.76,0,1.51-.47,0,0-.42-.24-.52-.54,0,0-.31.41-1.63.43Z"/>
  <path class="cls-5" d="M3.02,3.59s.04.06-.08.08l.31.24s.17-.05.24.06c0,0,.73-.13,1.07-.3,0,0-.11-.05,0-.12,0,0-.13-.11-.18-.18,0,0-.12.04-.19-.05,0,0-.26.23-1.16.27Z"/>
  <path class="cls-7" d="M3.58,3.77s-.12.05-.2.03c-.08-.02-.12-.07-.09-.11.03-.04.12-.05.2-.03.08.02.12.07.09.11Z"/>
  <path class="cls-4" d="M3.44,3.45s.18.24.55.55v.22s.25-.07.25-.07v-.23s-.37-.36-.46-.54c0,0-.13.05-.33.08Z"/>
  <path class="cls-6" d="M3.52.31c0,.44-.57,1.17-1.02,1.17S1.48.82,1.48.38s.06,0,.51,0c.06,0,.38-.22.51-.22.1,0,.36.22.51.22.39,0,.51-.41.51-.07Z"/>
  <path class="cls-2" d="M2.37,1.13s-.25,0-.32.06c-.08.07.04.22-.05.31-.17.18-.31.37-.27.49.07.19.21-.35.34-.15.13.2.1-.14.29.04s.03-.31.21-.1c.19.21.19.46.32.46.16,0-.16-.57.05-.44.21.14.43.09.23-.12-.06-.07-.16-.18-.26-.29-.04-.04,0-.22-.04-.26-.04-.03-.15.08-.19.06-.08-.04-.06.04-.19.06-.1.02-.02-.18-.11-.12Z"/>
  <path class="cls-8" d="M1.53,1.57c.28-.27.81-.12,1.11.01.3.13.48-.29.29-.5-.11-.12-.28.02-.35.11-.07.09-.13.18-.21.27-.12.13-.4.02-.31-.16.09-.19.5.03.63.07.26.07.53.1.78.01.09-.03.05-.17-.04-.14-.28.1-.57.04-.84-.05-.14-.04-.36-.16-.51-.1-.42.2-.03.76.32.54.08-.05.13-.13.19-.21.03-.05.22-.32.26-.18.02.07,0,.2-.08.23-.05.02-.16-.05-.21-.07-.09-.04-.19-.06-.29-.08-.27-.06-.64-.05-.85.16-.07.07.04.17.1.1Z"/>
  <path class="cls-2" d="M3.44.2c-.08.05-.21.18-.43.18-.15,0-.41-.22-.51-.22-.14,0-.45.22-.51.22-.24,0-.37-.13-.44-.18,0,0,.08.33.33.49.18.12.16-.02.26-.15.1-.13.16-.19.33.13.09.18.25-.5.39-.28.24.4.33.18.59-.2Z"/>
  <path class="cls-6" d="M3.99,3.99v.22s.25-.07.25-.07v-.23s-.14.05-.25.08Z"/>
  <path class="cls-6" d="M3.8,4.43v.21l.28-.09v-.22s-.08.04-.28.1Z"/>
  <path class="cls-6" d="M1.02,4.49l.02.2-.26-.06-.02-.21s.1.04.26.07Z"/>
</svg>