<?xml version="1.0" encoding="UTF-8"?>
<svg id="Layer_1" data-name="Layer 1" xmlns="http://www.w3.org/2000/svg" viewBox="0 0 5 5">
  <defs>
    <style>
      .cls-1 {
        fill: #ffdf85;
      }

      .cls-2 {
        fill: #fed0ac;
      }

      .cls-3 {
        fill: #ff8736;
      }

      .cls-4 {
        fill: #0046ff;
      }

      .cls-5 {
        fill: #0275ff;
      }

      .cls-6 {
        fill: #7d8b91;
      }

      .cls-7 {
        fill: #fff6d7;
      }

      .cls-8 {
        fill: #ffce31;
      }

      .cls-9 {
        fill: #002274;
      }

      .cls-10 {
        fill: #333;
      }
    </style>
  </defs>
  <path class="cls-9" d="M.23,1.67s2,2.13,2.21,3.1c0,0,.57-1.27,2.33-1.8,0,0-.62-1.47-2.29-2.63C2.49.34.79.85.23,1.67Z"/>
  <path class="cls-7" d="M.45.79s1.56,2.71,1.59,3.73c0,0,.78-1.05,2.59-1,0,0-.34-1.62-1.75-3.29,0,0-1.74-.06-2.43.56Z"/>
  <path class="cls-6" d="M1.64.89s.02-.06.04-.08c.03-.02.06,0,.09-.03.05-.04.08-.12.13-.16.06-.05.13-.09.2-.12.07-.03.15-.09.24-.08-.03.11-.11.2-.12.32,0,.06,0,.13,0,.19.01-.05.02-.1.05-.14.03-.06.09-.06.15-.08.06-.03.11-.08.15-.12.02.03.1-.02.11.03,0,.02.2,0,.22-.01-.04,0-.19,0-.2-.03-.02-.01-.06-.01-.1-.02,0-.01,0-.03,0-.05-.04.03-.08.07-.13.1-.06.05-.14.04-.2.08.02-.07.07-.14.09-.21.01-.03.02-.06.03-.09,0-.03,0-.02-.02-.03-.1-.03-.2.05-.29.09-.08.03-.15.08-.21.13-.04.04-.09.17-.14.18-.1,0-.07.09-.13.12-.03.02-.06.01-.09.04-.04.03-.09.08-.14.07,0-.04,0-.09-.02-.13-.05.03-.08.08-.12.12.02-.11.06-.21.06-.32-.06.04-.1.09-.14.16-.04.08-.08.21-.16.25,0-.11.05-.21.03-.32-.01.05-.02.12-.03.17-.02.07-.03.13-.03.2.15-.02.19-.25.28-.35-.02.1-.06.19-.05.3.06-.04.09-.11.15-.15.02.06-.03.15.08.1.04-.02.08-.06.12-.08.03-.02.07,0,.09-.04Z"/>
  <path class="cls-6" d="M3.17,1.21s-.08-.03-.11-.06c-.04-.04-.11-.02-.16,0-.12.03-.19.06-.3,0,0,.03,0,.18-.05.17-.05,0-.04-.15-.04-.2-.03.04-.05.08-.05.13,0,.04.02.06-.02.09-.04.04-.11.03-.16.02-.01-.08,0-.17.01-.25-.02.07-.03.14-.05.22-.01.05-.06.06-.11.05,0-.01,0-.07,0-.09-.04.08-.07.18-.13.25-.03.03-.09.07-.12.01-.02-.04,0-.09,0-.13-.03.04-.07.16-.13.16,0-.03.03-.05,0-.07-.02.03-.03.07-.05.1.02-.05.03-.09.04-.14-.09.06-.15.13-.2.23,0-.02,0-.05,0-.06,0,.03-.06.14-.03.16.05-.08.09-.17.17-.23-.04.1-.08.2-.1.31.05-.05.09-.1.12-.17.01-.02.02-.04.03-.06.02-.05.02-.01.06-.04.04-.03.05-.08.08-.12,0,.12.1.15.17.05.03-.04.05-.08.07-.13,0,0,.06.02.06.02.03,0,.05,0,.07-.02.08.03.2.03.25-.05.09.09.14-.05.15-.12.09.03.17,0,.25-.04.05-.02.14-.06.17,0,.04.01.07.02.11.03Z"/>
  <path class="cls-6" d="M2.42,1.94s0,0,0,0c0,0,0,0,0,0Z"/>
  <path class="cls-6" d="M2.38,1.91s0,0,.01.01c0,0,0,0-.01-.01ZM2.42,1.94s-.02-.04-.05-.02c-.03.03-.01-.02-.01-.05,0-.03,0-.06,0-.1-.02.03-.03.06-.05.09-.03.05-.02.14-.09.15.01-.04.02-.07.03-.11-.04.03-.08.06-.08.11,0,.07-.07.24-.16.22,0-.14.09-.27.12-.4-.14.09-.26.3-.28.46.07-.12.12-.25.22-.35-.03.11-.06.21-.07.31,0,.02.06,0,.06,0,.05-.02.08-.06.11-.11,0-.02.02-.03.03-.05.02-.04.03-.02.07-.03.05-.02.05-.08.1-.08.05,0,.16,0,.19-.03-.04,0-.09,0-.13-.01,0,0,0,0,0,0Z"/>
  <polygon class="cls-6" points="3.22 3.39 3.23 3.39 3.22 3.4 3.22 3.39"/>
  <path class="cls-6" d="M4.12,2.96s0,0-.01,0c0,0,0,0,.01,0ZM4.05,3.09s0-.02,0-.03c-.02,0-.04.02-.06.02,0-.02,0-.07.02-.09.06-.03.05.06.07.1-.01,0-.03,0-.04,0ZM4.04,3.14h0s0,0,0,0ZM3.85,3.19c-.06.02-.06-.04-.05-.08.04.01.07.03.11.04-.02.02-.04.04-.06.04ZM3.36,3.24c-.17-.07.05-.29.15-.33-.01.12-.08.24-.15.33ZM3.23,3.39s.02-.02,0,0c-.02.01-.01.01,0,0-.04.03-.08.06-.13.06,0-.11.01-.23.07-.33.03-.05.07-.06.1-.02.03.03,0,.06,0,.09,0-.01.01-.03.02-.04,0,.04.03.07.07.09-.04.05-.07.1-.12.14ZM4.38,3.04c-.13-.09-.28-.15-.42-.23.03.04.07.09.09.14-.07,0-.06.13-.07.13-.03-.02-.13,0-.18,0,0,0,0-.02,0-.02-.13.09-.23.21-.4.18.08-.12.14-.26.13-.4-.12.04-.2.17-.25.28-.01-.04-.07-.08-.11-.05-.04.04-.06.11-.08.16-.02.07-.03.13-.03.2,0,.05,0,.06.04.06.12,0,.23-.14.29-.23.15.04.25-.03.37-.11,0,.06.04.09.1.08.06-.01.08-.08.13-.09.03,0,.05.01.09.01.04,0,.08,0,.12-.01-.04-.05-.06-.08-.07-.15.09.02.17.04.26.04Z"/>
  <rect class="cls-8" x="2.79" y="1.02" width="1.62" height=".76" transform="translate(.06 2.95) rotate(-44.99)"/>
  <path class="cls-9" d="M4.68.39l-.07-.07c-.13-.13-.34-.13-.47,0l-.23.23.54.54.23-.23c.13-.13.13-.34,0-.47Z"/>
  <rect class="cls-4" x="4" y=".52" width=".21" height=".76" transform="translate(.56 3.16) rotate(-44.99)"/>
  <rect class="cls-5" x="4" y=".6" width=".21" height=".6" transform="translate(.56 3.16) rotate(-45)"/>
  <polygon class="cls-2" points="2.76 1.71 2.52 2.32 2.68 2.48 3.29 2.24 2.76 1.71"/>
  <path class="cls-10" d="M2.48,2.42c-.03.08.01.13.1.1l.3-.11-.28-.28-.11.3Z"/>
  <rect class="cls-1" x="2.64" y="1.17" width="1.42" height=".25" transform="translate(.06 2.75) rotate(-45)"/>
  <rect class="cls-3" x="3" y="1.53" width="1.42" height=".25" transform="translate(-.08 3.1) rotate(-45.01)"/>
</svg>