<?xml version="1.0" encoding="UTF-8"?>
<svg id="Layer_1" data-name="Layer 1" xmlns="http://www.w3.org/2000/svg" viewBox="0 0 5 5">
  <defs>
    <style>
      .cls-1 {
        fill: #acb8bf;
      }

      .cls-2 {
        fill: #42ade2;
      }

      .cls-3 {
        fill: #dae3ea;
      }

      .cls-4 {
        fill: #002274;
      }
    </style>
  </defs>
  <rect class="cls-1" x=".51" y=".65" width=".9" height=".22" transform="translate(-.26 .9) rotate(-45)"/>
  <rect class="cls-1" x="1.62" y=".81" width=".9" height=".22" transform="translate(-.04 1.73) rotate(-44.99)"/>
  <rect class="cls-1" x="3.79" y="3.93" width=".9" height=".22" transform="translate(-1.62 4.18) rotate(-44.98)"/>
  <rect class="cls-1" x="3.64" y="2.82" width=".9" height=".22" transform="translate(-.88 3.74) rotate(-44.98)"/>
  <path class="cls-2" d="M4.4,4.74l-.36-3.28-.49-.49L.26.6c-.16-.02-.13.38.06.46l2.47,1.15,1.15,2.47c.09.18.48.21.46.06Z"/>
  <path class="cls-3" d="M4.78.64c.17-.34-.09-.59-.42-.42-.43.22-1.06.71-1.7,1.34-1,1-1.64,1.99-1.43,2.2s1.21-.43,2.2-1.43c.64-.64,1.13-1.27,1.34-1.7Z"/>
  <path class="cls-2" d="M1.75,4.7l-.13-1.15-.17-.17-1.15-.13c-.06,0-.04.13.02.16l.87.4.4.87c.03.06.17.07.16.02Z"/>
  <path class="cls-1" d="M1.58,3.6c-.35.35-.67.59-.72.54-.05-.05.19-.37.54-.72.35-.35.67-.59.72-.54.05.05-.19.37-.54.72Z"/>
  <path class="cls-4" d="M4.66.76c.04-.13.03-.27-.06-.36s-.23-.11-.36-.06l-.27.17c.13-.05.32.02.41.11.09.09.16.28.11.41l.17-.27Z"/>
  <rect class="cls-3" x="4.12" y=".53" width=".63" height=".07" transform="translate(.9 3.3) rotate(-45.02)"/>
</svg>