<?xml version="1.0" encoding="UTF-8"?>
<svg id="Layer_1" data-name="Layer 1" xmlns="http://www.w3.org/2000/svg" viewBox="0 0 5 5">
  <defs>
    <style>
      .cls-1 {
        fill: #00dc4a;
      }

      .cls-2 {
        fill: #002274;
      }
    </style>
  </defs>
  <circle class="cls-1" cx="2.5" cy="2.5" r="2.34"/>
  <path class="cls-2" d="M2.68,1.79c0,.37.75.37.75,0v-.37h-.75l-.3.22h.3v.15Z"/>
  <polygon class="cls-2" points="3.42 1.35 3.42 1.05 2.6 1.05 2.68 1.35 3.42 1.35"/>
  <polygon class="cls-2" points="1.92 2 1.12 1.83 1.12 2.6 1.92 2.77 1.92 2"/>
  <polygon class="cls-2" points="1.92 1.49 1.12 1.66 1.92 1.83 1.92 1.49"/>
  <polygon class="cls-2" points="2.41 3.37 3.54 2.24 2.86 2.24 2.41 2.24 2.41 2.24 1.89 3.18 1.74 2.91 1.3 2.91 1.67 3.58 2.12 3.58 2.41 3.04 2.41 3.37"/>
  <polygon class="cls-2" points="2.54 3.42 3.73 3.42 3.73 2.24 2.54 3.42"/>
  <rect class="cls-2" x="2.41" y="3.55" width="1.31" height=".39"/>
</svg>